<?xml version="1.0" encoding="iso-8859-1"?>
<!-- Generator: Adobe Illustrator 16.0.0, SVG Export Plug-In . SVG Version: 6.00 Build 0)  -->
<!DOCTYPE svg PUBLIC "-//W3C//DTD SVG 1.1//EN" "http://www.w3.org/Graphics/SVG/1.1/DTD/svg11.dtd">
<svg xmlns="http://www.w3.org/2000/svg" xmlns:xlink="http://www.w3.org/1999/xlink" version="1.1" id="Capa_1" x="0px" y="0px" width="512px" height="512px" viewBox="0 0 537.805 537.805" style="enable-background:new 0 0 537.805 537.805;" xml:space="preserve">
<g>
	<path d="M536.494,298.812l-40.392-61.582c-2.143-3.366-7.191-5.967-11.093-5.967h-250.69   c-15.835-47.965-60.97-82.467-114.214-82.467C53.779,148.797,0,202.576,0,268.902c0,66.325,53.779,120.106,120.105,120.106   c53.167,0,98.226-34.578,114.138-82.469h90.347c3.978,0,9.562,2.143,12.469,4.896l49.037,45.67c2.907,2.754,7.649,2.754,10.557,0   l33.966-31.518c2.907-2.754,7.65-2.754,10.558,0l33.966,31.518c2.907,2.754,7.497,2.602,10.404-0.152l49.725-47.354   C538.101,306.922,538.637,302.104,536.494,298.812z M120.258,305.852c-20.425,0-36.949-16.602-36.949-36.95   c0-20.349,16.601-36.95,36.949-36.95c20.349,0,36.95,16.601,36.95,36.95C157.208,289.25,140.684,305.852,120.258,305.852z" fill="#1a73e8"/>
</g>
<g>
</g>
<g>
</g>
<g>
</g>
<g>
</g>
<g>
</g>
<g>
</g>
<g>
</g>
<g>
</g>
<g>
</g>
<g>
</g>
<g>
</g>
<g>
</g>
<g>
</g>
<g>
</g>
<g>
</g>
</svg>
